Oswald Thin-Regular.ufo
<glyph name="four" format="1">
  <advance width="936"/>
  <unicode hex="0034"/>
  <outline>
    <contour>
      <point x="594" y="0" type="line"/>
      <point x="658" y="0" type="line"/>
      <point x="658" y="539" type="line"/>
      <point x="830" y="539" type="line"/>
      <point x="830" y="597" type="line"/>
      <point x="658" y="597" type="line"/>
      <point x="658" y="1688" type="line"/>
      <point x="590" y="1688" type="line"/>
      <point x="68" y="599" type="line"/>
      <point x="68" y="539" type="line"/>
      <point x="594" y="539" type="line"/>
    </contour>
  </outline>
</glyph>
<glyph name="six" format="1">
  <advance width="936"/>
  <unicode hex="0036"/>
  <outline>
    <contour>
      <point x="491" y="-24" type="curve" smooth="yes"/>
      <point x="758" y="-24"/>
      <point x="866" y="128"/>
      <point x="866" y="437" type="curve" smooth="yes"/>
      <point x="866" y="854"/>
      <point x="773" y="952"/>
      <point x="505" y="952" type="curve" smooth="yes"/>
      <point x="387" y="952"/>
      <point x="267" y="898"/>
      <point x="207" y="875" type="curve"/>
      <point x="207" y="1293" type="line" smooth="yes"/>
      <point x="207" y="1563"/>
      <point x="325" y="1644"/>
      <point x="471" y="1652" type="curve" smooth="yes"/>
      <point x="682" y="1664"/>
      <point x="766" y="1602"/>
      <point x="766" y="1303" type="curve"/>
      <point x="825" y="1303" type="line"/>
      <point x="825" y="1347" type="line" smooth="yes"/>
      <point x="825" y="1602"/>
      <point x="742" y="1712"/>
      <point x="491" y="1707" type="curve" smooth="yes"/>
      <point x="256" y="1702"/>
      <point x="143" y="1561"/>
      <point x="143" y="1285" type="curve" smooth="yes"/>
      <point x="143" y="465" type="line" smooth="yes"/>
      <point x="143" y="120"/>
      <point x="240" y="-24"/>
    </contour>
    <contour>
      <point x="491" y="32" type="curve" smooth="yes"/>
      <point x="316" y="32"/>
      <point x="207" y="99"/>
      <point x="207" y="489" type="curve" smooth="yes"/>
      <point x="207" y="824" type="line"/>
      <point x="257" y="845"/>
      <point x="394" y="897"/>
      <point x="495" y="897" type="curve" smooth="yes"/>
      <point x="748" y="897"/>
      <point x="797" y="804"/>
      <point x="797" y="439" type="curve" smooth="yes"/>
      <point x="797" y="83"/>
      <point x="676" y="32"/>
    </contour>
  </outline>
</glyph>
<glyph name="A" format="1">
  <advance width="911"/>
  <unicode hex="0041"/>
  <outline>
    <contour>
      <point x="780" y="0" type="line"/>
      <point x="848" y="0" type="line"/>
      <point x="503" y="1688" type="line"/>
      <point x="405" y="1688" type="line"/>
      <point x="63" y="0" type="line"/>
      <point x="129" y="0" type="line"/>
      <point x="227" y="497" type="line"/>
      <point x="455" y="1630" type="line"/>
      <point x="686" y="497" type="line"/>
    </contour>
    <contour>
      <point x="205" y="524" type="line"/>
      <point x="194" y="474" type="line"/>
      <point x="720" y="474" type="line"/>
      <point x="709" y="524" type="line"/>
    </contour>
  </outline>
</glyph>
<glyph name="L" format="1">
  <advance width="744"/>
  <unicode hex="004C"/>
  <outline>
    <contour>
      <point x="196" y="0" type="line"/>
      <point x="758" y="0" type="line"/>
      <point x="758" y="56" type="line"/>
      <point x="196" y="56" type="line"/>
    </contour>
    <component base="uc_main_stem"/>
  </outline>
</glyph>
<glyph name="R" format="1">
  <advance width="1044"/>
  <unicode hex="0052"/>
  <outline>
    <contour>
      <point x="197" y="870" type="line"/>
      <point x="611" y="870" type="line"/>
      <point x="887" y="0" type="line"/>
      <point x="952" y="0" type="line"/>
      <point x="671" y="877" type="line"/>
      <point x="895" y="903"/>
      <point x="933" y="1099"/>
      <point x="933" y="1283" type="curve" smooth="yes"/>
      <point x="933" y="1475"/>
      <point x="896" y="1688"/>
      <point x="618" y="1688" type="curve" smooth="yes"/>
      <point x="194" y="1688" type="line"/>
      <point x="194" y="1632" type="line"/>
      <point x="609" y="1632" type="line" smooth="yes"/>
      <point x="816" y="1632"/>
      <point x="869" y="1498"/>
      <point x="869" y="1283" type="curve" smooth="yes"/>
      <point x="869" y="1083"/>
      <point x="835" y="922"/>
      <point x="616" y="922" type="curve" smooth="yes"/>
      <point x="197" y="922" type="line"/>
    </contour>
    <component base="uc_main_stem"/>
  </outline>
</glyph>
<glyph name="k" format="1">
  <advance width="765"/>
  <unicode hex="006B"/>
  <outline>
    <contour>
      <point x="168" y="398" type="line"/>
      <point x="390" y="690" type="line"/>
      <point x="664" y="0" type="line"/>
      <point x="729" y="0" type="line"/>
      <point x="436" y="738" type="line"/>
      <point x="731" y="1153" type="line"/>
      <point x="658" y="1153" type="line"/>
      <point x="168" y="480" type="line"/>
    </contour>
    <component base="lc_ascender_stem" xOffset="-2"/>
  </outline>
</glyph>
<glyph name="dieresis" format="1">
  <advance width="739"/>
  <unicode hex="00A8"/>
  <outline>
    <contour>
      <point x="162" y="1341" type="line"/>
      <point x="246" y="1341" type="line"/>
      <point x="246" y="1466" type="line"/>
      <point x="162" y="1466" type="line"/>
    </contour>
    <contour>
      <point x="467" y="1341" type="line"/>
      <point x="550" y="1341" type="line"/>
      <point x="550" y="1466" type="line"/>
      <point x="467" y="1466" type="line"/>
    </contour>
  </outline>
</glyph>
<glyph name="uni00AD" format="1">
  <advance width="659"/>
  <unicode hex="00AD"/>
  <outline>
    <contour>
      <point x="558" y="563" type="line"/>
      <point x="117" y="563" type="line"/>
      <point x="117" y="448" type="line"/>
      <point x="558" y="448" type="line"/>
    </contour>
  </outline>
</glyph>
<glyph name="periodcentered" format="1">
  <advance width="415"/>
  <unicode hex="00B7"/>
  <outline>
    <contour>
      <point x="144" y="715" type="line"/>
      <point x="271" y="715" type="line"/>
      <point x="271" y="836" type="line"/>
      <point x="144" y="836" type="line"/>
    </contour>
  </outline>
</glyph>
<glyph name="Lslash" format="1">
  <advance width="744"/>
  <unicode hex="0141"/>
  <outline>
    <contour>
      <point x="489" y="1026" type="line"/>
      <point x="489" y="1082" type="line"/>
      <point x="14" y="841" type="line"/>
      <point x="14" y="785" type="line"/>
    </contour>
    <component base="L"/>
  </outline>
</glyph>
<glyph name="OE" format="1">
  <advance width="1475"/>
  <unicode hex="0152"/>
  <outline>
    <contour>
      <point x="530" y="0" type="curve" smooth="yes"/>
      <point x="1406" y="0" type="line"/>
      <point x="1406" y="68" type="line"/>
      <point x="932" y="68" type="line"/>
      <point x="932" y="844" type="line"/>
      <point x="1272" y="844" type="line"/>
      <point x="1272" y="899" type="line"/>
      <point x="932" y="899" type="line"/>
      <point x="932" y="1620" type="line"/>
      <point x="1406" y="1620" type="line"/>
      <point x="1406" y="1688" type="line"/>
      <point x="530" y="1688" type="line"/>
      <point x="225" y="1689"/>
      <point x="128" y="1490"/>
      <point x="128" y="1237" type="curve" smooth="yes"/>
      <point x="128" y="453" type="line" smooth="yes"/>
      <point x="128" y="213"/>
      <point x="212" y="0"/>
    </contour>
    <contour>
      <point x="530" y="65" type="line"/>
      <point x="271" y="68"/>
      <point x="191" y="225"/>
      <point x="191" y="443" type="curve" smooth="yes"/>
      <point x="191" y="1247" type="line" smooth="yes"/>
      <point x="191" y="1472"/>
      <point x="270" y="1625"/>
      <point x="530" y="1625" type="curve" smooth="yes"/>
      <point x="870" y="1625" type="line"/>
      <point x="870" y="65" type="line"/>
    </contour>
  </outline>
</glyph>
<glyph name="breve" format="1">
  <advance width="744"/>
  <unicode hex="02D8"/>
  <outline>
    <contour>
      <point x="376" y="1265" type="curve" smooth="yes"/>
      <point x="495" y="1265"/>
      <point x="612" y="1323"/>
      <point x="621" y="1497" type="curve"/>
      <point x="561" y="1497" type="line"/>
      <point x="541" y="1370"/>
      <point x="458" y="1337"/>
      <point x="376" y="1337" type="curve" smooth="yes"/>
      <point x="294" y="1337"/>
      <point x="211" y="1370"/>
      <point x="191" y="1497" type="curve"/>
      <point x="131" y="1497" type="line"/>
      <point x="140" y="1323"/>
      <point x="257" y="1265"/>
    </contour>
  </outline>
</glyph>
<glyph name="afii10023" format="1">
  <advance width="741"/>
  <unicode hex="0401"/>
  <outline>
    <contour>
      <point x="692" y="122" type="line"/>
      <point x="244" y="122" type="line"/>
      <point x="244" y="832" type="line"/>
      <point x="564" y="832" type="line"/>
      <point x="564" y="947" type="line"/>
      <point x="244" y="947" type="line"/>
      <point x="244" y="1599" type="line"/>
      <point x="692" y="1599" type="line"/>
      <point x="692" y="1721" type="line"/>
      <point x="92" y="1721" type="line"/>
      <point x="92" y="0" type="line"/>
      <point x="692" y="0" type="line"/>
    </contour>
    <contour>
      <point x="292" y="2087" type="line"/>
      <point x="108" y="2087" type="line"/>
      <point x="108" y="1908" type="line"/>
      <point x="292" y="1908" type="line"/>
    </contour>
    <contour>
      <point x="676" y="2087" type="line"/>
      <point x="492" y="2087" type="line"/>
      <point x="492" y="1908" type="line"/>
      <point x="676" y="1908" type="line"/>
    </contour>
  </outline>
</glyph>
<glyph name="afii10056" format="1">
  <advance width="686"/>
  <unicode hex="0407"/>
  <outline>
    <contour>
      <point x="239" y="1959" type="line"/>
      <point x="55" y="1959" type="line"/>
      <point x="55" y="1780" type="line"/>
      <point x="239" y="1780" type="line"/>
    </contour>
    <contour>
      <point x="396" y="1721" type="line"/>
      <point x="246" y="1721" type="line"/>
      <point x="246" y="0" type="line"/>
      <point x="396" y="0" type="line"/>
    </contour>
    <contour>
      <point x="623" y="1959" type="line"/>
      <point x="439" y="1959" type="line"/>
      <point x="439" y="1780" type="line"/>
      <point x="623" y="1780" type="line"/>
    </contour>
  </outline>
</glyph>
<glyph name="afii10026" format="1">
  <advance width="1045"/>
  <unicode hex="0418"/>
  <outline>
    <contour>
      <point x="883" y="0" type="line"/>
      <point x="883" y="1688" type="line"/>
      <point x="821" y="1688" type="line"/>
      <point x="222" y="137" type="line"/>
      <point x="222" y="1688" type="line"/>
      <point x="162" y="1688" type="line"/>
      <point x="162" y="0" type="line"/>
      <point x="225" y="0" type="line"/>
      <point x="823" y="1542" type="line"/>
      <point x="823" y="0" type="line"/>
    </contour>
  </outline>
</glyph>
<glyph name="afii10034" format="1">
  <advance width="996"/>
  <unicode hex="0420"/>
  <outline>
    <contour>
      <point x="197" y="767" type="line"/>
      <point x="589" y="767" type="line" smooth="yes"/>
      <point x="894" y="767"/>
      <point x="967" y="1062"/>
      <point x="967" y="1242" type="curve" smooth="yes"/>
      <point x="967" y="1460"/>
      <point x="890" y="1688"/>
      <point x="591" y="1688" type="curve" smooth="yes"/>
      <point x="195" y="1688" type="line"/>
      <point x="195" y="1634" type="line"/>
      <point x="591" y="1634" type="line" smooth="yes"/>
      <point x="796" y="1634"/>
      <point x="896" y="1523"/>
      <point x="896" y="1242" type="curve" smooth="yes"/>
      <point x="896" y="964"/>
      <point x="790" y="822"/>
      <point x="590" y="822" type="curve" smooth="yes"/>
      <point x="197" y="822" type="line"/>
    </contour>
    <component base="uc_main_stem"/>
  </outline>
</glyph>
<glyph name="afii10038" format="1">
  <advance width="1095"/>
  <unicode hex="0424"/>
  <outline>
    <contour>
      <point x="555" y="1414" type="line" smooth="yes"/>
      <point x="276" y="1414"/>
      <point x="142" y="1263"/>
      <point x="142" y="957" type="curve" smooth="yes"/>
      <point x="142" y="736" type="line" smooth="yes"/>
      <point x="142" y="427"/>
      <point x="276" y="279"/>
      <point x="555" y="279" type="curve"/>
      <point x="555" y="329" type="line" smooth="yes"/>
      <point x="310" y="329"/>
      <point x="206" y="470"/>
      <point x="206" y="736" type="curve" smooth="yes"/>
      <point x="206" y="957" type="line" smooth="yes"/>
      <point x="206" y="1223"/>
      <point x="310" y="1364"/>
      <point x="555" y="1364" type="curve"/>
    </contour>
    <contour>
      <point x="555" y="279" type="line" smooth="yes"/>
      <point x="834" y="279"/>
      <point x="968" y="430"/>
      <point x="968" y="736" type="curve" smooth="yes"/>
      <point x="968" y="957" type="line" smooth="yes"/>
      <point x="968" y="1266"/>
      <point x="834" y="1414"/>
      <point x="555" y="1414" type="curve"/>
      <point x="555" y="1364" type="line" smooth="yes"/>
      <point x="800" y="1364"/>
      <point x="904" y="1223"/>
      <point x="904" y="957" type="curve" smooth="yes"/>
      <point x="904" y="736" type="line" smooth="yes"/>
      <point x="904" y="470"/>
      <point x="800" y="329"/>
      <point x="555" y="329" type="curve"/>
    </contour>
    <component base="uc_main_stem" xOffset="359"/>
  </outline>
</glyph>
<glyph name="afii10040" format="1">
  <advance width="1090"/>
  <unicode hex="0426"/>
  <outline>
    <contour>
      <point x="864" y="25" type="line"/>
      <point x="864" y="-222" type="line"/>
      <point x="906" y="-222" type="line"/>
      <point x="928" y="-91" type="line"/>
      <point x="928" y="25" type="line"/>
    </contour>
    <contour>
      <point x="193" y="0" type="line"/>
      <point x="899" y="0" type="line"/>
      <point x="899" y="52" type="line"/>
      <point x="193" y="52" type="line"/>
    </contour>
    <component base="uc_main_stem"/>
    <component base="uc_main_stem" xOffset="702"/>
  </outline>
</glyph>
<glyph name="afii10041" format="1">
  <advance width="1006"/>
  <unicode hex="0427"/>
  <outline>
    <contour>
      <point x="815" y="857" type="line"/>
      <point x="771" y="827"/>
      <point x="657" y="794"/>
      <point x="536" y="794" type="curve" smooth="yes"/>
      <point x="352" y="794"/>
      <point x="182" y="839"/>
      <point x="182" y="1091" type="curve" smooth="yes"/>
      <point x="182" y="1688" type="line"/>
      <point x="118" y="1688" type="line"/>
      <point x="118" y="1090" type="line" smooth="yes"/>
      <point x="118" y="830"/>
      <point x="288" y="744"/>
      <point x="537" y="744" type="curve" smooth="yes"/>
      <point x="622" y="744"/>
      <point x="716" y="760"/>
      <point x="815" y="794" type="curve"/>
    </contour>
    <component base="uc_main_stem" xOffset="618"/>
  </outline>
</glyph>
<glyph name="afii10042" format="1">
  <advance width="1449"/>
  <unicode hex="0428"/>
  <outline>
    <contour>
      <point x="195" y="0" type="line"/>
      <point x="1258" y="0" type="line"/>
      <point x="1258" y="52" type="line"/>
      <point x="195" y="52" type="line"/>
    </contour>
    <component base="uc_main_stem" xOffset="1061"/>
    <component base="uc_main_stem" xOffset="532"/>
    <component base="uc_main_stem"/>
  </outline>
</glyph>
<glyph name="afii10047" format="1">
  <advance width="971"/>
  <unicode hex="042D"/>
  <outline>
    <contour>
      <point x="379" y="856" type="line"/>
      <point x="844" y="856" type="line"/>
      <point x="844" y="908" type="line"/>
      <point x="379" y="908" type="line"/>
    </contour>
    <component base="C" xScale="-1" yScale="-1" xOffset="1002" yOffset="1682"/>
  </outline>
</glyph>
<glyph name="afii10049" format="1">
  <advance width="1059"/>
  <unicode hex="042F"/>
  <outline>
    <contour>
      <point x="866" y="1687" type="line"/>
      <point x="494" y="1687" type="line" smooth="yes"/>
      <point x="189" y="1687"/>
      <point x="116" y="1392"/>
      <point x="116" y="1212" type="curve" smooth="yes"/>
      <point x="116" y="994"/>
      <point x="193" y="766"/>
      <point x="492" y="766" type="curve" smooth="yes"/>
      <point x="868" y="766" type="line"/>
      <point x="868" y="820" type="line"/>
      <point x="492" y="820" type="line" smooth="yes"/>
      <point x="287" y="820"/>
      <point x="187" y="931"/>
      <point x="187" y="1212" type="curve" smooth="yes"/>
      <point x="187" y="1490"/>
      <point x="293" y="1632"/>
      <point x="493" y="1632" type="curve" smooth="yes"/>
      <point x="866" y="1632" type="line"/>
    </contour>
    <contour>
      <point x="161" y="0" type="line"/>
      <point x="421" y="783" type="line"/>
      <point x="365" y="808" type="line"/>
      <point x="92" y="0" type="line"/>
    </contour>
    <component base="uc_main_stem" xOffset="671"/>
  </outline>
</glyph>
<glyph name="afii10068" format="1">
  <advance width="584"/>
  <unicode hex="0433"/>
  <outline>
    <contour>
      <point x="522" y="1152" type="line"/>
      <point x="167" y="1152" type="line"/>
      <point x="167" y="1095" type="line"/>
      <point x="522" y="1095" type="line"/>
    </contour>
    <component base="lc_xheight_stem"/>
  </outline>
</glyph>
<glyph name="afii10072" format="1">
  <advance width="1017"/>
  <unicode hex="0436"/>
  <outline>
    <contour>
      <point x="96" y="1152" type="line"/>
      <point x="32" y="1152" type="line"/>
      <point x="348" y="663" type="line"/>
      <point x="14" y="0" type="line"/>
      <point x="81" y="0" type="line"/>
      <point x="386" y="625" type="line"/>
      <point x="477" y="491" type="line"/>
      <point x="543" y="491" type="line"/>
      <point x="632" y="625" type="line"/>
      <point x="936" y="0" type="line"/>
      <point x="1003" y="0" type="line"/>
      <point x="669" y="663" type="line"/>
      <point x="984" y="1152" type="line"/>
      <point x="921" y="1152" type="line"/>
      <point x="543" y="571" type="line"/>
      <point x="477" y="571" type="line"/>
    </contour>
    <component base="lc_xheight_stem" xOffset="342"/>
  </outline>
</glyph>
<glyph name="afii10076" format="1">
  <advance width="738"/>
  <unicode hex="043A"/>
  <outline>
    <contour>
      <point x="171" y="398" type="line"/>
      <point x="393" y="690" type="line"/>
      <point x="667" y="0" type="line"/>
      <point x="732" y="0" type="line"/>
      <point x="439" y="738" type="line"/>
      <point x="734" y="1153" type="line"/>
      <point x="661" y="1153" type="line"/>
      <point x="171" y="480" type="line"/>
    </contour>
    <component base="lc_xheight_stem" xOffset="1"/>
    <component base="lc_xheight_stem" xOffset="4"/>
  </outline>
</glyph>
<glyph name="afii10078" format="1">
  <advance width="984.682"/>
  <unicode hex="043C"/>
  <outline>
    <contour>
      <point x="142" y="0" type="line"/>
      <point x="195" y="0" type="line"/>
      <point x="233" y="942" type="line"/>
      <point x="470" y="0" type="line"/>
      <point x="512" y="0" type="line"/>
      <point x="752" y="945" type="line"/>
      <point x="790" y="0" type="line"/>
      <point x="843" y="0" type="line"/>
      <point x="796" y="1151" type="line"/>
      <point x="748" y="1151" type="line"/>
      <point x="491" y="114" type="line"/>
      <point x="233" y="1151" type="line"/>
      <point x="191" y="1151" type="line"/>
    </contour>
  </outline>
</glyph>
<glyph name="afii10089" format="1">
  <advance width="714"/>
  <unicode hex="0447"/>
  <outline>
    <contour>
      <point x="78" y="743" type="line" smooth="yes"/>
      <point x="78" y="585"/>
      <point x="193" y="491"/>
      <point x="337" y="491" type="curve" smooth="yes"/>
      <point x="411" y="491"/>
      <point x="492" y="516"/>
      <point x="569" y="569" type="curve"/>
      <point x="569" y="631" type="line"/>
      <point x="496" y="570"/>
      <point x="414" y="541"/>
      <point x="343" y="541" type="curve" smooth="yes"/>
      <point x="231" y="541"/>
      <point x="142" y="611"/>
      <point x="142" y="740" type="curve" smooth="yes"/>
      <point x="142" y="1152" type="line"/>
      <point x="78" y="1152" type="line"/>
    </contour>
    <component base="lc_xheight_stem" xOffset="403"/>
  </outline>
</glyph>
<glyph name="afii10092" format="1">
  <advance width="809"/>
  <unicode hex="044A"/>
  <outline>
    <contour>
      <point x="184" y="1152" type="line"/>
      <point x="-2" y="1152" type="line"/>
      <point x="-2" y="1101" type="line"/>
      <point x="184" y="1101" type="line"/>
    </contour>
    <component base="cyrillic_lc_right_bowl"/>
    <component base="lc_xheight_stem" xOffset="17"/>
  </outline>
</glyph>
<glyph name="afii10097" format="1">
  <advance width="825"/>
  <unicode hex="044F"/>
  <outline>
    <contour>
      <point x="330" y="570" type="line"/>
      <point x="111" y="0" type="line"/>
      <point x="181" y="0" type="line"/>
      <point x="381" y="553" type="line"/>
    </contour>
    <component base="cyrillic_lc_right_bowl" xScale="-1" yScale="-1" xOffset="846" yOffset="1152"/>
    <component base="lc_xheight_stem" xOffset="490"/>
  </outline>
</glyph>
<glyph name="afii10103" format="1">
  <advance width="353"/>
  <unicode hex="0456"/>
  <outline>
    <contour>
      <point x="135" y="1331" type="line"/>
      <point x="199" y="1331" type="line"/>
      <point x="199" y="1503" type="line"/>
      <point x="135" y="1503" type="line"/>
    </contour>
    <component base="lc_xheight_stem"/>
  </outline>
</glyph>
<glyph name="afii10104" format="1">
  <advance width="474"/>
  <unicode hex="0457"/>
  <outline>
    <contour>
      <point x="171" y="1651" type="line"/>
      <point x="21" y="1651" type="line"/>
      <point x="21" y="1472" type="line"/>
      <point x="171" y="1472" type="line"/>
    </contour>
    <contour>
      <point x="331" y="1198" type="line"/>
      <point x="181" y="1198" type="line"/>
      <point x="181" y="0" type="line"/>
      <point x="331" y="0" type="line"/>
    </contour>
    <contour>
      <point x="460" y="1651" type="line"/>
      <point x="310" y="1651" type="line"/>
      <point x="310" y="1472" type="line"/>
      <point x="460" y="1472" type="line"/>
    </contour>
  </outline>
</glyph>
<glyph name="quotedblbase" format="1">
  <advance width="570"/>
  <unicode hex="201E"/>
  <outline>
    <contour>
      <point x="126" y="-256" type="line"/>
      <point x="179" y="-234"/>
      <point x="225" y="-218"/>
      <point x="225" y="129" type="curve"/>
      <point x="87" y="129" type="line"/>
      <point x="87" y="0" type="line"/>
      <point x="215" y="0" type="line"/>
      <point x="216" y="-23"/>
      <point x="243" y="-202"/>
      <point x="123" y="-249" type="curve"/>
    </contour>
    <contour>
      <point x="382" y="-256" type="line"/>
      <point x="434" y="-234"/>
      <point x="481" y="-218"/>
      <point x="481" y="129" type="curve"/>
      <point x="343" y="129" type="line"/>
      <point x="343" y="0" type="line"/>
      <point x="471" y="0" type="line"/>
      <point x="472" y="-23"/>
      <point x="498" y="-202"/>
      <point x="379" y="-249" type="curve"/>
    </contour>
  </outline>
</glyph>
<glyph name="cyrillic_uc_right_bowl" format="1">
  <advance width="0"/>
  <outline>
    <contour>
      <point x="196" y="956" type="line"/>
      <point x="196" y="895" type="line"/>
      <point x="571" y="895" type="line" smooth="yes"/>
      <point x="819" y="895"/>
      <point x="904" y="721"/>
      <point x="904" y="466" type="curve" smooth="yes"/>
      <point x="904" y="229"/>
      <point x="828" y="61"/>
      <point x="571" y="61" type="curve" smooth="yes"/>
      <point x="196" y="61" type="line"/>
      <point x="196" y="0" type="line"/>
      <point x="567" y="0" type="line" smooth="yes"/>
      <point x="874" y="0"/>
      <point x="974" y="215"/>
      <point x="974" y="463" type="curve" smooth="yes"/>
      <point x="974" y="766"/>
      <point x="850" y="956"/>
      <point x="566" y="956" type="curve" smooth="yes"/>
    </contour>
  </outline>
</glyph>
